<svg fill="#E9C600" xmlns="http://www.w3.org/2000/svg" version="1.1" viewBox="-5.0 -17.0 110.0 135.0">
 <path d="m50 3.125c-12.434 0-24.355 4.9375-33.145 13.73-8.793 8.7891-13.73 20.711-13.73 33.145s4.9375 24.355 13.73 33.145c8.7891 8.793 20.711 13.73 33.145 13.73s24.355-4.9375 33.145-13.73c8.793-8.7891 13.73-20.711 13.73-33.145-0.015625-12.426-4.957-24.34-13.746-33.129-8.7891-8.7891-20.703-13.73-33.129-13.746zm0 90.625c-11.602 0-22.73-4.6094-30.938-12.812-8.2031-8.207-12.812-19.336-12.812-30.938s4.6094-22.73 12.812-30.938c8.207-8.2031 19.336-12.812 30.938-12.812s22.73 4.6094 30.938 12.812c8.2031 8.207 12.812 19.336 12.812 30.938-0.011719 11.598-4.625 22.719-12.828 30.922s-19.324 12.816-30.922 12.828zm0-79.688c-9.5312 0-18.672 3.7852-25.41 10.527-6.7422 6.7383-10.527 15.879-10.527 25.41s3.7852 18.672 10.527 25.41c6.7383 6.7422 15.879 10.527 25.41 10.527s18.672-3.7852 25.41-10.527c6.7422-6.7383 10.527-15.879 10.527-25.41-0.011719-9.5273-3.8008-18.66-10.539-25.398-6.7383-6.7383-15.871-10.527-25.398-10.539zm12.5 45.312c-0.015625 6.0352-4.9023 10.922-10.938 10.938h-1.5625v3.125c0 0.86328-0.69922 1.5625-1.5625 1.5625s-1.5625-0.69922-1.5625-1.5625v-3.125h-7.8125c-0.86328-0.003906-1.5586-0.69922-1.5625-1.5625v-37.5c0.003906-0.86328 0.69922-1.5586 1.5625-1.5625h7.8125v-3.125c0-0.86328 0.69922-1.5625 1.5625-1.5625s1.5625 0.69922 1.5625 1.5625v3.125h1.5625c6.0391 0.007812 10.93 4.8984 10.938 10.938 0.015625 2.9062-1.1445 5.6953-3.2188 7.7344-0.62109 0.63281-1.3203 1.1836-2.0781 1.6406 3.2852 1.9844 5.293 5.5391 5.2969 9.375zm-3.125 0c0 4.3125-3.5 7.8125-7.8125 7.8125h-1.5625v-15.625h1.5625c4.3125 0 7.8125 3.5 7.8125 7.8125zm-12.5-7.8125v15.625h-6.25v-15.625zm0-18.75v15.625h-6.25v-15.625zm12.5 7.8125c0 4.3125-3.5 7.8125-7.8125 7.8125h-1.5625v-15.625h1.5625c4.3125 0 7.8125 3.5 7.8125 7.8125z"/>
</svg>