<svg fill="#41C3FF" xmlns="http://www.w3.org/2000/svg" viewBox="0 -6 48 60"><path d="M24,5A19,19,0,1,0,43,24,19,19,0,0,0,24,5ZM20.92,23.8a4,4,0,0,1,1.38,1.73l1.63,4.08a1,1,0,0,1-.56,1.3A1,1,0,0,1,23,31a1,1,0,0,1-.93-.63l-1.63-4.08a2.18,2.18,0,0,0-2-1.29H18v5a1,1,0,0,1-2,0V18a1,1,0,0,1,2,0v4.9A5,5,0,0,0,22,18a1,1,0,0,1,2,0A7,7,0,0,1,20.92,23.8ZM29,25h1a3,3,0,0,1,0,6H27a1,1,0,0,1,0-2h3a1,1,0,0,0,0-2H29a3,3,0,0,1,0-6h3a1,1,0,0,1,0,2H29a1,1,0,0,0,0,2Z"/><path d="M24,48A24,24,0,1,1,48,24,24,24,0,0,1,24,48ZM24,2A22,22,0,1,0,46,24,22,22,0,0,0,24,2Z"/></svg>