<svg fill="#7D7D7D" xmlns="http://www.w3.org/2000/svg" version="1.1" viewBox="-5.0 -18.0 110.0 135.0">
 <path d="m17.43 66.52c0.03125-1.0352 0.36328-2.0391 0.94922-2.8906 0.1875-0.26953 0.3125-0.58203 0.35938-0.91016h-4.1602c-1.5508 0.042969-3.0312-0.65234-4-1.8672-0.95703-1.1719-1.1133-2.8086-0.39844-4.1406l9-17.391c0.0625-11.922 6.0938-23.023 16.062-29.559 9.9727-6.5352 22.559-7.6406 33.516-2.9414 10.957 4.6992 18.828 14.578 20.965 26.309 2.1367 11.73-1.7461 23.75-10.344 32.012-3.3633 3.1523-5.2422 7.5781-5.168 12.188v17.73c0 0.25-0.10156 0.48828-0.27734 0.66797-0.17578 0.17578-0.41406 0.27344-0.66406 0.27344h-37.109c-0.51562-0.003906-0.92969-0.42578-0.92969-0.94141v-8.2578c0-1.6562-1.3438-3-3-3h-3.2305c-3.5 0-5.6016-1-6.9297-2.6211-1.1836-1.6719-1.875-3.6445-2-5.6914-0.6875-0.57422-1.2148-1.3242-1.5195-2.168-0.4375-1.2383-0.19922-2.6133 0.62891-3.6289-1.1367-0.63672-1.832-1.8398-1.8086-3.1406zm55.102-28.949h4.1914-0.003906c0.26562 0.027344 0.53125-0.058593 0.72656-0.23828 0.19922-0.17578 0.3125-0.42969 0.3125-0.69531 0-0.26953-0.11328-0.52344-0.3125-0.69922-0.19531-0.17969-0.46094-0.26562-0.72656-0.23828h-4.1875c-0.26562-0.027344-0.53125 0.058593-0.72656 0.23828-0.19922 0.17578-0.3125 0.42969-0.3125 0.69922 0 0.26562 0.11328 0.51953 0.3125 0.69531 0.19531 0.17969 0.46094 0.26562 0.72656 0.23828zm-11.062 15.609h-13.469c-0.33203 0-0.60156 0.26953-0.60156 0.60156s0.26953 0.59766 0.60156 0.59766h13.469c0.33203 0 0.60156-0.26562 0.60156-0.59766s-0.26953-0.60156-0.60156-0.60156zm-20-4.6211-3 3c-0.36719 0.36719-0.36719 0.96484 0 1.332s0.96484 0.36719 1.332 0l3-3c0.36719-0.36719 0.36719-0.96484 0-1.332-0.36719-0.36719-0.96484-0.36719-1.332 0zm-4.5586-12.859h-4.1992c-0.26563-0.027344-0.53125 0.058593-0.72656 0.23828-0.19922 0.17578-0.3125 0.42969-0.3125 0.69922 0 0.26562 0.11328 0.51953 0.3125 0.69531 0.19531 0.17969 0.46094 0.26562 0.72656 0.23828h4.1992c0.26562 0.027344 0.52734-0.058593 0.72656-0.23828 0.19922-0.17578 0.30859-0.42969 0.30859-0.69531 0-0.26953-0.10937-0.52344-0.30859-0.69922-0.19922-0.17969-0.46094-0.26562-0.72656-0.23828zm5.8789-12.32-3-3c-0.17578-0.17578-0.41406-0.27344-0.66406-0.27344s-0.48828 0.097656-0.66406 0.27344c-0.33984 0.37891-0.33984 0.95312 0 1.332l3 3c0.16797 0.19922 0.41406 0.32031 0.67578 0.33203s0.51953-0.085938 0.70312-0.27344c0.1875-0.18359 0.28906-0.4375 0.27734-0.69922-0.007813-0.26172-0.12891-0.50781-0.32813-0.67969zm12.871-4.5586v-4.1914c0-0.51953-0.42188-0.9375-0.94141-0.9375s-0.9375 0.41797-0.9375 0.9375v4.1914c0 0.51953 0.41797 0.94141 0.9375 0.94141s0.94141-0.42188 0.94141-0.94141zm12.34 5.8789 3-3c0.36719-0.36719 0.36719-0.96094 0-1.3281-0.36719-0.36719-0.96094-0.36719-1.3281 0l-3 3c-0.17969 0.17578-0.27734 0.41406-0.27734 0.66406s0.097657 0.48828 0.27734 0.66406c0.36719 0.36719 0.96094 0.36719 1.3281 0zm-1.3516 25.191 3 3c0.37891 0.33594 0.95312 0.33594 1.332 0 0.17578-0.17578 0.27344-0.41797 0.27344-0.66406 0-0.25-0.097656-0.49219-0.27344-0.66797l-3-3c-0.375-0.3125-0.92969-0.28906-1.2734 0.058594-0.34375 0.34766-0.36719 0.90234-0.046875 1.2734zm-8.3008 12.422 0.003906-0.003906c2.4453-0.40625 4.2422-2.5195 4.2578-5v-1.3086c0.86328-0.44141 1.3867-1.3438 1.3438-2.3086-0.042969-0.96875-0.64453-1.8203-1.543-2.1797v-0.33203c-0.035156-1.7344 0.67188-3.4062 1.9414-4.5898 3.3281-3.2305 4.8164-7.918 3.9609-12.477-0.85156-4.5625-3.9336-8.3906-8.207-10.199-4.2734-1.8086-9.168-1.3555-13.035 1.207-3.8711 2.5586-6.1953 6.8906-6.1992 11.527 0 3.75 1.5234 7.3359 4.2188 9.9414 0.61719 0.59375 1.1094 1.3047 1.4492 2.0898 0.35938 0.89062 0.51563 1.8516 0.46094 2.8086-0.89844 0.36719-1.5 1.2266-1.5391 2.1992-0.039063 0.96875 0.49219 1.875 1.3594 2.3125v1.3086c0.023438 2.4844 1.8242 4.5898 4.2695 5l0.41016 1.4102c0.28906 1 1.1992 1.6875 2.2383 1.6914h1.9531c1.043 0 1.957-0.6875 2.25-1.6914l0.41016-1.4102zm-9.6484-6.0508v1c0 1.7695 1.4375 3.207 3.2109 3.207h5.6094c0.85156 0.003906 1.668-0.33594 2.2695-0.9375 0.60156-0.60547 0.9375-1.4219 0.94141-2.2695v-1zm4.3516 6.1211 0.25 0.82031v-0.003906c0.023438 0.10156 0.078125 0.1875 0.16016 0.25 0.082031 0.054687 0.17969 0.082031 0.27734 0.082031h1.9531c0.097656 0.003906 0.19531-0.027344 0.27734-0.082031 0.085938-0.058594 0.14453-0.14844 0.17188-0.25l0.23828-0.82031zm-1.4805-11.082v-10.711h-1.5703c-0.90625 0-1.7773-0.35938-2.4219-1-0.64062-0.63672-1-1.5039-1-2.4102 0-1.8867 1.5312-3.418 3.4219-3.418s3.4219 1.5312 3.4219 3.418v1.5391h2.5781v-1.5469c-0.003906-0.91016 0.35547-1.7812 1-2.4219 0.64062-0.64453 1.5117-1.0039 2.4219-1 0.90234-0.003906 1.7695 0.35938 2.4062 1 0.64062 0.64453 1 1.5117 1 2.4219-0.015625 1.8789-1.5352 3.4023-3.418 3.418h-1.5391v10.711h2.6602v-0.14062c-0.035156-2.2344 0.85938-4.3789 2.4688-5.9297 2.9219-2.7891 4.2422-6.8633 3.5156-10.836-0.72656-3.9727-3.4062-7.3125-7.1211-8.8906-3.7188-1.5742-7.9805-1.1758-11.344 1.0664-3.3594 2.2422-5.3672 6.0195-5.3398 10.059 0 1.6055 0.31641 3.1914 0.9375 4.6719 0.62891 1.4766 1.5469 2.8164 2.7031 3.9297 1.6797 1.5625 2.6094 3.7734 2.5469 6.0703zm4.4219 0-0.003907-10.711h-2.5391v10.711zm-4.4219-12.59v-1.5391c0-0.41406-0.16797-0.8125-0.46094-1.1016-0.29688-0.28906-0.69531-0.44922-1.1094-0.44141-0.41016 0-0.80078 0.16016-1.0898 0.44922-0.29297 0.28906-0.46094 0.67969-0.46094 1.0938 0 0.41016 0.16797 0.80078 0.46094 1.0898 0.28906 0.28906 0.67969 0.44922 1.0898 0.44922zm6.3008 0h1.5391c0.62109 0 1.1836-0.375 1.4219-0.95313 0.23828-0.57422 0.10547-1.2344-0.33203-1.6758-0.44141-0.44141-1.1055-0.57422-1.6797-0.33594-0.57422 0.23828-0.94922 0.80078-0.94922 1.4258z" fill-rule="evenodd"/></svg>