<svg fill="#e1a249" xmlns="http://www.w3.org/2000/svg" version="1.1" viewBox="-5.0 -16.0 110.0 135.0">
 <path d="m80.258 96.504h-60.512c-2.9531 0-5.6328-1.1992-7.5703-3.1367-1.9453-1.9375-3.1445-4.6172-3.1445-7.5742v-76.07c0-1.7109 0.69922-3.2617 1.8242-4.3906 1.1328-1.1328 2.6836-1.8281 4.3945-1.8281h51.078c1.7109 0 3.2617 0.69922 4.3906 1.8242 1.1328 1.1328 1.8281 2.6836 1.8281 4.3945v26.57h12.207c1.7109 0 3.2617 0.69922 4.3906 1.8242 1.1328 1.1328 1.8281 2.6836 1.8281 4.3945v43.281c0 2.957-1.1992 5.6367-3.1367 7.5742-1.9453 1.9375-4.6211 3.1367-7.5742 3.1367zm-61.586-13.434c-0.82812 0-1.5-0.67187-1.5-1.5 0-0.82812 0.67188-1.5 1.5-1.5h44.238c0.82812 0 1.5 0.67188 1.5 1.5 0 0.82813-0.67188 1.5-1.5 1.5zm0-7.0664c-0.82812 0-1.5-0.67188-1.5-1.5s0.67188-1.5 1.5-1.5h44.238c0.82812 0 1.5 0.67188 1.5 1.5s-0.67188 1.5-1.5 1.5zm0-7.0664c-0.82812 0-1.5-0.67188-1.5-1.5s0.67188-1.5 1.5-1.5h44.238c0.82812 0 1.5 0.67188 1.5 1.5s-0.67188 1.5-1.5 1.5zm31.488-7.6797c-0.82812 0-1.5-0.67187-1.5-1.5 0-0.82812 0.67188-1.5 1.5-1.5h12.75c0.82812 0 1.5 0.67188 1.5 1.5 0 0.82813-0.67188 1.5-1.5 1.5zm0-9.5234c-0.82812 0-1.5-0.67188-1.5-1.5s0.67188-1.5 1.5-1.5h12.75c0.82812 0 1.5 0.67188 1.5 1.5s-0.67188 1.5-1.5 1.5zm0-9.5234c-0.82812 0-1.5-0.67188-1.5-1.5 0-0.82813 0.67188-1.5 1.5-1.5h12.75c0.82812 0 1.5 0.67187 1.5 1.5 0 0.82812-0.67188 1.5-1.5 1.5zm0-9.5234c-0.82812 0-1.5-0.67188-1.5-1.5s0.67188-1.5 1.5-1.5h12.75c0.82812 0 1.5 0.67188 1.5 1.5s-0.67188 1.5-1.5 1.5zm-27.871-3.0039h17.031c1.4023 0 2.6836 0.57422 3.6133 1.5078 0.92969 0.92188 1.5078 2.2031 1.5078 3.6133v21.332c0 1.4102-0.57422 2.6914-1.5039 3.6172-0.92578 0.92578-2.207 1.5039-3.6172 1.5039h-17.031c-1.4102 0-2.6875-0.57422-3.6133-1.5039l-0.089843-0.097656c-0.87109-0.92188-1.4141-2.1602-1.4141-3.5195v-21.332c0-1.4102 0.57422-2.6914 1.5-3.6172l0.097656-0.089844c0.91797-0.87109 2.1602-1.4141 3.5195-1.4141zm17.031 3h-17.031c-0.55469 0-1.0625 0.21484-1.4414 0.5625l-0.058594 0.058594c-0.38281 0.38281-0.62109 0.91406-0.62109 1.4922v21.332c0 0.55469 0.21484 1.0625 0.5625 1.4375l0.0625 0.058594c0.38281 0.38281 0.91406 0.625 1.4922 0.625h17.031c0.58203 0 1.1094-0.23828 1.4922-0.625 0.38281-0.38281 0.625-0.91406 0.625-1.4922v-21.332c0-0.57812-0.23828-1.1094-0.625-1.4922-0.38281-0.38672-0.91016-0.625-1.4922-0.625zm-16.273-20.359h35.48c1.6133 0 3.0859 0.66016 4.1445 1.7266 1.0664 1.0703 1.7305 2.5391 1.7305 4.1523s-0.66016 3.0859-1.7266 4.1445c-1.0703 1.0664-2.5391 1.7305-4.1523 1.7305h-35.48c-1.6172 0-3.0898-0.66016-4.1523-1.7266-1.0625-1.0625-1.7266-2.5352-1.7266-4.1523 0-1.6172 0.66406-3.0898 1.7266-4.1523s2.5352-1.7266 4.1523-1.7266zm35.48 3h-35.48c-0.78906 0-1.5117 0.32422-2.0312 0.84766-0.52344 0.52344-0.84766 1.2422-0.84766 2.0312s0.32812 1.5117 0.84766 2.0312c0.52344 0.52344 1.2422 0.84766 2.0312 0.84766h35.48c0.79297 0 1.5117-0.32422 2.0352-0.84375 0.51953-0.52344 0.84375-1.2422 0.84375-2.0352s-0.32422-1.5117-0.84375-2.0352c-0.52344-0.51953-1.2422-0.84375-2.0352-0.84375zm-38.785 78.168h53.082l-0.14453-0.13672c-1.9375-1.9375-3.1367-4.6172-3.1367-7.5742v-76.07c0-0.88672-0.35938-1.6953-0.94141-2.2734-0.58203-0.58203-1.3906-0.94141-2.2734-0.94141h-51.078c-0.88672 0-1.6953 0.35938-2.2734 0.94141-0.58203 0.58203-0.94141 1.3906-0.94141 2.2734v76.07c0 2.1289 0.86328 4.0586 2.2578 5.4531 1.3906 1.3945 3.3203 2.2578 5.4531 2.2578zm52.801-54.211v46.5c0 2.1289 0.86328 4.0586 2.2578 5.4531l0.070313 0.070313c1.3906 1.3516 3.2891 2.1836 5.3867 2.1836 2.1328 0 4.0625-0.85938 5.457-2.2578 1.3906-1.3945 2.2578-3.3281 2.2578-5.457v-43.281c0-0.88672-0.35938-1.6953-0.94141-2.2734-0.58203-0.58203-1.3906-0.94141-2.2734-0.94141h-12.207z"/></svg>