<svg fill="#00BD55" xmlns="http://www.w3.org/2000/svg" viewBox="0 -6 24 30" x="0px" y="0px"><path d="M3 2.25C3.41421 2.25 3.75 2.58579 3.75 3V14C3.75 15.4201 3.75091 16.4287 3.83041 17.2102C3.90865 17.9793 4.05673 18.4449 4.29772 18.8056C4.53484 19.1605 4.83953 19.4652 5.1944 19.7023C5.55507 19.9433 6.02071 20.0914 6.78975 20.1696C7.57133 20.2491 8.57993 20.25 10 20.25H21C21.4142 20.25 21.75 20.5858 21.75 21C21.75 21.4142 21.4142 21.75 21 21.75H9.95844C8.58922 21.75 7.50431 21.75 6.63794 21.6619C5.7503 21.5716 5.00926 21.3826 4.36104 20.9495C3.84239 20.6029 3.39707 20.1576 3.05052 19.639C2.61739 18.9907 2.42841 18.2497 2.33812 17.3621C2.24998 16.4957 2.24999 15.4108 2.25 14.0416V3C2.25 2.58579 2.58579 2.25 3 2.25Z" fill="white" /><path d="M21 11.25C21.4142 11.25 21.75 11.5858 21.75 12V15C21.75 15.4142 21.4142 15.75 21 15.75H18C17.5858 15.75 17.25 15.4142 17.25 15C17.25 14.5858 17.5858 14.25 18 14.25H19.1893L15.8839 10.9445C15.3957 10.4564 14.6043 10.4564 14.1161 10.9445L12.9445 12.1161C11.8706 13.1901 10.1294 13.1901 9.05546 12.1161L5.46967 8.53033C5.17678 8.23744 5.17678 7.76256 5.46967 7.46967C5.76256 7.17678 6.23744 7.17678 6.53033 7.46967L10.1161 11.0555C10.6043 11.5436 11.3957 11.5436 11.8839 11.0555L13.0555 9.88388C14.1294 8.80994 15.8706 8.80994 16.9445 9.88388L20.25 13.1893V12C20.25 11.5858 20.5858 11.25 21 11.25Z"/></svg>