<svg fill="#00BD55" xmlns="http://www.w3.org/2000/svg" viewBox="2 -6 24 30" x="0px" y="0px"><path d="M21 11.25C21.4142 11.25 21.75 11.5858 21.75 12V15C21.75 15.4142 21.4142 15.75 21 15.75H18C17.5858 15.75 17.25 15.4142 17.25 15C17.25 14.5858 17.5858 14.25 18 14.25H19.1893L15.8839 10.9445C15.3957 10.4564 14.6043 10.4564 14.1161 10.9445L12.9445 12.1161C11.8706 13.1901 10.1294 13.1901 9.05546 12.1161L5.46967 8.53033C5.17678 8.23744 5.17678 7.76256 5.46967 7.46967C5.76256 7.17678 6.23744 7.17678 6.53033 7.46967L10.1161 11.0555C10.6043 11.5436 11.3957 11.5436 11.8839 11.0555L13.0555 9.88388C14.1294 8.80994 15.8706 8.80994 16.9445 9.88388L20.25 13.1893V12C20.25 11.5858 20.5858 11.25 21 11.25Z"/></svg>