<svg fill="#FF001C" xmlns="http://www.w3.org/2000/svg" viewBox="2 -6 24 30" x="0px" y="0px"><path d="M19.1893 8.75L16.8839 11.0555C16.3957 11.5436 15.6043 11.5436 15.1161 11.0555L13.9445 9.88388C12.8706 8.80994 11.1294 8.80994 10.0555 9.88388L6.46967 13.4697C6.17678 13.7626 6.17678 14.2374 6.46967 14.5303C6.76256 14.8232 7.23744 14.8232 7.53033 14.5303L11.1161 10.9445C11.6043 10.4564 12.3957 10.4564 12.8839 10.9445L14.0555 12.1161C15.1294 13.1901 16.8706 13.1901 17.9445 12.1161L20.25 9.81066V11C20.25 11.4142 20.5858 11.75 21 11.75C21.4142 11.75 21.75 11.4142 21.75 11V8C21.75 7.80806 21.6768 7.61612 21.5303 7.46967C21.4584 7.39776 21.3755 7.34351 21.2871 7.30691C21.1987 7.27024 21.1017 7.25 21 7.25H18C17.5858 7.25 17.25 7.58579 17.25 8C17.25 8.41421 17.5858 8.75 18 8.75H19.1893Z" /></svg>