<svg fill="#FF001C" xmlns="http://www.w3.org/2000/svg" viewBox="0 -6 24 30" x="0px" y="0px"><path d="M3 2.25C3.41421 2.25 3.75 2.58579 3.75 3V14C3.75 15.4201 3.75091 16.4287 3.83041 17.2102C3.90865 17.9793 4.05673 18.4449 4.29772 18.8056C4.53484 19.1605 4.83953 19.4652 5.1944 19.7023C5.55507 19.9433 6.02071 20.0914 6.78975 20.1696C7.57133 20.2491 8.57993 20.25 10 20.25H21C21.4142 20.25 21.75 20.5858 21.75 21C21.75 21.4142 21.4142 21.75 21 21.75H9.95844C8.58922 21.75 7.50431 21.75 6.63794 21.6619C5.7503 21.5716 5.00926 21.3826 4.36104 20.9495C3.84239 20.6029 3.39707 20.1576 3.05052 19.639C2.61739 18.9907 2.42841 18.2497 2.33812 17.3621C2.24998 16.4957 2.24999 15.4108 2.25 14.0416V3C2.25 2.58579 2.58579 2.25 3 2.25Z" fill="white" /><path d="M19.1893 8.75L16.8839 11.0555C16.3957 11.5436 15.6043 11.5436 15.1161 11.0555L13.9445 9.88388C12.8706 8.80994 11.1294 8.80994 10.0555 9.88388L6.46967 13.4697C6.17678 13.7626 6.17678 14.2374 6.46967 14.5303C6.76256 14.8232 7.23744 14.8232 7.53033 14.5303L11.1161 10.9445C11.6043 10.4564 12.3957 10.4564 12.8839 10.9445L14.0555 12.1161C15.1294 13.1901 16.8706 13.1901 17.9445 12.1161L20.25 9.81066V11C20.25 11.4142 20.5858 11.75 21 11.75C21.4142 11.75 21.75 11.4142 21.75 11V8C21.75 7.80806 21.6768 7.61612 21.5303 7.46967C21.4584 7.39776 21.3755 7.34351 21.2871 7.30691C21.1987 7.27024 21.1017 7.25 21 7.25H18C17.5858 7.25 17.25 7.58579 17.25 8C17.25 8.41421 17.5858 8.75 18 8.75H19.1893Z" /></svg>