<svg xmlns:dc="http://purl.org/dc/elements/1.1/" xmlns:cc="http://creativecommons.org/ns#" xmlns:rdf="http://www.w3.org/1999/02/22-rdf-syntax-ns#" xmlns:svg="http://www.w3.org/2000/svg" xmlns="http://www.w3.org/2000/svg" xmlns:sodipodi="http://sodipodi.sourceforge.net/DTD/sodipodi-0.dtd" xmlns:inkscape="http://www.inkscape.org/namespaces/inkscape" version="1.1" x="0px" y="0px" viewBox="0 -10 100 125"><g transform="translate(0,-952.36218)"><path style="text-indent:0;text-transform:none;direction:ltr;block-progression:tb;baseline-shift:baseline;color:#000000;enable-background:accumulate;" d="m 51.875,964.50884 a 2.0002002,1.9955286 0 0 0 -1.03125,0.4053 l -18,12.96964 a 2.0002002,1.9955286 0 0 0 0,3.21123 l 18,12.96964 a 2.0002002,1.9955286 0 1 0 2.3125,-3.21123 l -13,-9.35311 34.84375,0 c 4.035307,0 7.819251,1.20183 10.53125,3.49183 2.711999,2.29 4.46875,5.62974 4.46875,10.47547 0,4.90769 -1.5501,7.93519 -3.96875,9.94549 -2.41865,2.0102 -5.920738,3.0242 -10.03125,3.0242 a 2.0002002,1.9955286 0 1 0 0,3.9906 c 4.753488,0 9.2284,-1.1623 12.59375,-3.9595 C 91.9591,1005.6714 94,1001.2604 94,995.46761 94,989.61283 91.697001,984.95298 88.125,981.93679 84.552999,978.9206 79.828693,977.50965 75,977.50965 l -34.84375,0 13,-9.38428 A 2.0002002,1.9955286 0 0 0 51.875,964.50884 z M 24,992.47462 c -4.753488,0 -9.228401,1.13119 -12.59375,3.9283 C 8.0409007,999.20004 6,1003.6422 6,1009.4349 c 0,5.8548 2.3029976,10.4835 5.875,13.4997 3.572002,3.0162 8.296309,4.4583 13.125,4.4583 l 34.84375,0 -13,9.3531 a 2.0002002,1.9955286 0 1 0 2.3125,3.2112 l 18,-12.9696 a 2.0002002,1.9955286 0 0 0 0,-3.2113 l -18,-12.9696 a 2.0002002,1.9955286 0 0 0 -1.3125,-0.4053 2.0002002,1.9955286 0 0 0 -1,3.6165 l 13,9.3843 -34.84375,0 c -4.035309,0 -7.819252,-1.233 -10.53125,-3.523 C 11.756752,1017.5892 10,1014.2807 10,1009.4349 c 0,-4.9077 1.550099,-7.9663 3.96875,-9.97663 2.418651,-2.01026 5.920738,-2.99299 10.03125,-2.99299 a 2.0002002,1.9955286 0 1 0 0,-3.99066 z" fill="#000000" fill-opacity="1" stroke="none" marker="none" visibility="visible" display="inline" overflow="visible"/></g></svg>