<svg fill="#000000" xmlns="http://www.w3.org/2000/svg" version="1.1" viewBox="-5.0 -20.0 110.0 135.0">
 <path d="m84.871 81.461-15.449-15.461c7.125-8.2656 9.4414-19.641 6.1211-30.039-3.3203-10.395-11.805-18.32-22.402-20.922-10.602-2.6055-21.789 0.48438-29.551 8.1562-7.7617 7.6758-10.977 18.828-8.4961 29.457 2.4844 10.629 10.312 19.203 20.672 22.641 10.355 3.4375 21.758 1.25 30.105-5.7812l15.457 15.488c0.98047 0.94922 2.5391 0.9375 3.5078-0.027344 0.96484-0.96094 0.98047-2.5195 0.035156-3.5039zm-65.473-35.871c0-6.9805 2.7734-13.676 7.7109-18.613 4.9375-4.9336 11.633-7.707 18.613-7.707 6.9805 0 13.676 2.7773 18.613 7.7148 4.9336 4.9336 7.707 11.633 7.7031 18.613 0 6.9805-2.7773 13.676-7.7148 18.609-4.9375 4.9336-11.633 7.707-18.613 7.7031-6.9766-0.011718-13.664-2.7891-18.598-7.7227-4.9297-4.9336-7.707-11.621-7.7148-18.598z"/>
</svg>